@startuml

hide empty description

state Node{
    state N_A : !isLeader

    state N_B : isLeader

    [*] -> N_A : {self.send()}
    N_A -> N_A : recieve(int n) \n {n > currentLeader \n currentLeader = n \n self.send()}
    N_A -> N_A : send() \n {rightNode.recieve(currentLeader)}
    N_A --> N_B : recieve(int n) \n {n == myNumber \n self.ImLeader()}
    N_B -> N_B : self.ImLeader() \n {self.ImLeader()}

}

@enduml