@startuml
hide empty description

state Train{
state T_1 : !status
state T_1 : !isRun

state T_2 : status
state T_2 : !isRun

state T_3 : status
state T_3 : isRun


[*] -> T_2 : {self.leaveStation()}
T_1 -> T_2 : LeaveStation() \n {controller.setTrainStatus(status, isRun) after(networkDelayTrain)}
T_2 -> T_3 : running() \n {controller.setTrainStatus(status, isRun) after(networkDelayTrain) \n self.approachStation() after(runningTime)}
T_3 -> T_1 : approachStation() \n {controller.setTrainStatus(status, isRun) after(networkDelayTrain) \n self.leaveStation() after(atStationTime)}
}

state Door{
state D_1 : !isDoorClosed
state D_1 : !isDoorLocked

state D_2 : isDoorClosed
state D_2 : !isDoorLocked

state D_3 : isDoorClosed
state D_3 : isDoorLocked

[*] -> D_1

D_1 -> D_1 : lockDoor() \n {controller.setDoorStatus after(networkDelayDoor)}
D_1 -> D_1 : unlockDoor() \n {controller.setDoorStatus after(networkDelayDoor)}

D_1 --> D_2 : closeDoor() \n {controller.setDoorStatus(isDoorClosed, isDoorLocked)  after(networkDelayDoor)}

D_2 --> D_1 : openDoor() \n {controller.setDoorStatus(isDoorLocked, isDoorLocked) after(networkDelayDoor)}

D_2 -> D_2 : closeDoor() \n {controller.setDoorStatus after(networkDelayDoor)}
D_2 -> D_2 :  unlockDoor() \n {controller.setDoorStatus after(networkDelayDoor)}

D_2 --> D_3 : lockDoor() \n {controller.setDoorStatus(isDoorClosed, isDoorLocked) after(networkDelayDoor)}

D_3 -> D_3 : closeDoor() \n {controller.setDoorStatus after(networkDelayDoor)}
D_3 -> D_3 : openDoor() \n {controller.setDoorStatus after(networkDelayDoor)}

D_3 --> D_2 : unlockDoor() \n {controller.setDoorStatus(isDoorLocked, isDoorLocked) after(networkDelayDoor)}
}

state Controller{

state C_1 : !isClosed
state C_1 : !isLocked
state C_1 : trainStatus
state C_1 : !commandToMove

state C_2 : isClosed
state C_2 : !isLocked
state C_2 : trainStatus
state C_2 : !commandToMove

state C_3 : isClosed
state C_3 : isLocked
state C_3 : trainStatus
state C_3 : !commandToMove

state C_4 : isClosed
state C_4 : isLocked
state C_4 : trainStatus
state C_4 : commandToMove

state C_5 : isClosed
state C_5 : isLocked
state C_5 : !trainStatus
state C_5 : !commandToMove

state C_6 : isClosed
state C_6 : !isLocked
state C_6 : !trainStatus
state C_6 : !commandToMove

state C_7 : !isClosed
state C_7 : !isLocked
state C_7 : !trainStatus
state C_7 : !commandToMove


[*] -> C_1

C_1 -> C_1 : driveController() \n {door.closeDoor() after(networkDelayDoor) \n door.lockDoor() after(reactionDelay + networkDelayDoor)}
C_1 -> C_1 : setDoorStatus(boolean close, boolean lock) \n {self.driveController()}
C_1 -> C_1 : setTrainStatus(boolean status, boolean isRunning) \n {self.driveController()}

C_1 --> C_2 : setDoorStatus(boolean close, boolean lock) \n {close == true && lock == false, self.driveController()}

C_2 -> C_2 : driveController() \n {door.lockDoor() after(networkDelayDoor)}
C_2 -> C_2 : setDoorStatus(boolean close, boolean lock) \n {self.driveController()}
C_2 -> C_2 : setTrainStatus(boolean status, boolean isRunning) \n (self.driveController()}

C_2 --> C_3 : setDoorStatus(boolean close, boolean lock) \n {close == true && lock == true, self.driveController()}

C_3 -> C_3 : driveController() \n {train.running() after(networkDelayTrain}
C_3 -> C_3 : setDoorStatus(boolean close, boolean lock) \n {self.driveController()}
C_3 -> C_3 : setTrainStatus(boolean status, boolean isRunning) \n {self.driveController()}

C_3 --> C_4 : setTrainStatus(boolean status, boolean isRunning) \n {status == true && isRunning == true, self.driveController()}

C_4 -> C_4 : driveController() \n {} \n setDoorStatus(boolean close, boolean lock) \n {self.driveController()}
C_4 -> C_4 : setTrainStatus(boolean status, boolean isRunning) \n {self.driveController()}

C_4 --> C_5 : setTrainStatus(boolean status, boolean isRunning) \n {status == false && isRunning == false, self.driveController()}

C_5 -> C_5 : driveController() \n {door.unlockDoor() after(networkDelayDoor) \n door.openDoor() after(reactionDelay + networkDelayDoor)}
C_5 -> C_5 : setDoorStatus(boolean close, boolean lock) \n {self.driveController()}
C_5 -> C_5 : setTrainStatus(boolean status, boolean isRunning) \n {self.driveController()}

C_5 --> C_6 : setDoorStatus(boolean close, boolean lock) \n {close == true && lock == false, driveController()}

C_6 -> C_6 : driveController() \n {door.openDoor() after(reactionDelay + networkDelayDoor)} \n 
C_6 -> C_6 : setDoorStatus(boolean close, boolean lock) \n {self.driveController()}
C_6 -> C_6 : setTrainStatus(boolean status, boolean isRunning) \n {self.driveController()}

C_6 --> C_7 : setDoorStatus(boolean close, boolean lock) \n {close == false && lock == false, driveController()}

C_7 -> C_7 : driveController() \n {}
C_7 -> C_7 : setDoorStatus(boolean close, boolean lock) \n {self.driveController()}
C_7 -> C_7 : setTrainStatus(boolean status, boolean isRunning) \n {self.driveController()}

C_7 --> C_1 : setTrainStatus(boolean close, boolean lock) \n {close == true && lock == false, driveController()}

}

state Passenger{
state P : P

[*] -> P : {self.passengerOpenDoor() after(passengerPeriod)}
P -> P : passengerOpenDoor() \n {door.openDoor() \n self.passengerOpenDoor() after(passengerPeriod)}
}
@enduml